<?xml version="1.0" encoding="UTF-8"?>
<svg width="401px" height="350px" viewBox="0 0 401 350" version="1.1" xmlns="http://www.w3.org/2000/svg" xmlns:xlink="http://www.w3.org/1999/xlink">
    <!-- Generator: Sketch 53.1 (72631) - https://sketchapp.com -->
    <title>Group 2</title>
    <desc>Created with Sketch.</desc>
    <g id="Page-1" stroke="none" stroke-width="1" fill="none" fill-rule="evenodd">
        <g id="Landing-Page" transform="translate(-799.000000, -212.000000)">
            <g id="Header" transform="translate(-119.000000, -354.000000)">
                <g id="Background">
                    <g id="Group-2" transform="translate(918.000000, 566.000000)">
                        <g id="Group">
                            <g id="Group-3" transform="translate(0.000000, 331.956261)" fill="#FFCA00">
                                <path d="M396.560965,12.2142812 L4.41377604,12.2142812 C1.97648569,12.2142812 -0.000427594798,9.52629672 -0.000427594798,6.21234323 C-0.000427594798,2.89838974 1.97648569,0.212343228 4.41377604,0.212343228 L396.560965,0.212343228 C398.998256,0.212343228 400.975169,2.89838974 400.975169,6.21234323 C400.975169,9.52629672 398.998256,12.2142812 396.560965,12.2142812" id="Fill-1"></path>
                            </g>
                            <path d="M172.597401,314.528435 L128.213168,314.528435 L128.213168,236.88706 L183.913098,236.88706 L150.532097,205.261139 L150.532097,95.7294928 L126.683307,83.1830162 C112.214554,75.4114842 94.0205689,75.370815 79.5112361,83.0757972 C63.1555193,91.7623882 54.1102661,108.789881 56.8433204,125.856195 L70.0865612,236.88706 L111.98122,236.88706 L111.98122,314.528435 L67.5503192,314.528435 C61.4714546,314.528435 56.5430293,318.876352 56.5430293,324.41477 C56.5430293,329.953189 61.4714546,334.759559 67.5503192,334.759559 C73.4181685,334.759559 78.1984773,329.317269 78.5251453,325.62006 L109.09802,325.62006 C109.424688,329.317269 114.207026,335.077519 120.072846,335.077519 C125.940695,335.077519 130.723033,329.317269 131.047672,325.62006 L161.622575,325.62006 C161.947214,329.317269 166.729552,334.687464 172.597401,334.687464 C178.676266,334.687464 183.604691,330.147292 183.604691,324.608874 C183.604691,319.070456 178.676266,314.528435 172.597401,314.528435" id="Fill-65" fill="#000000"></path>
                            <path d="M193.244704,321.511628 L186.879439,333.72093 L226.925033,333.72093 C225.697822,329.158416 220.981684,326.217197 216.032274,326.926752 L211.232969,327.617233 C207.886032,327.617233 205.6162,324.416606 206.902236,321.511628 L193.244704,321.511628 Z" id="Fill-67" fill="#000000"></path>
                            <path d="M230.323958,321.511628 L223.958692,333.72093 L264.004286,333.72093 C262.777076,329.158416 258.060938,326.217197 253.111528,326.926752 L248.312223,327.617233 C244.965286,327.617233 242.695454,324.416606 243.981489,321.511628 L230.323958,321.511628 Z" id="Fill-69" fill="#000000"></path>
                            <path d="M225.275508,324.224806 L202.683296,235.718817 L159.121003,215.706544 L132.684344,215.706544 L111.237761,185.852713 L165.106661,191.279178 L222.057608,211.232607 C228.008796,213.31787 232.30744,218.09338 233.367908,223.79935 L250.655755,324.224806 L225.275508,324.224806 Z" id="Fill-71" fill="#1E389D"></path>
                            <path d="M147.506958,191.691082 L192.996411,213.358325 C198.405682,215.936401 202.013893,220.807531 202.590557,226.316745 L212.093331,324.224806 L188.362793,324.224806 L167.548064,227.91655 L109.544595,215.708383 C94.0964961,215.708383 81.5743581,204.366318 81.5743581,190.3763 L81.5743581,185.852713 L147.506958,191.691082 Z" id="Fill-73" fill="#212293"></path>
                            <path d="M149.960309,84.5531543 L104.673611,84.5531543 C92.866591,84.5531543 81.9732823,90.2624976 76.151172,99.5010535 L42.4822399,145.076953 C37.5209309,151.793073 40.4228286,160.907155 48.585179,164.240504 L95.465275,183.385749 L104.437552,164.883011 L73.5646979,152.7248 C70.491861,151.513006 69.4723303,148.04237 71.4829018,145.622443 L82.5674997,132.283557 L82.5674997,189.922481 L163.663941,189.922481 L156.808055,116.442372 L189.329252,143.654651 C196.415092,150.160263 208.500905,148.527454 213.148826,140.436624 L241.756734,90.6597171 L227.48534,82.751938 L202.210747,119.675043 L173.291485,93.3267621 C167.131566,87.712605 158.729086,84.5531543 149.960309,84.5531543" id="Fill-75" fill="#FA7564"></path>
                            <path d="M159.777067,33.7843333 C159.948774,23.9773369 150.684568,12.4898913 137.273432,9.11398896 C124.341479,5.85811868 110.666792,10.9444782 103.610822,21.6329602 L102.446806,23.3959315 C97.850642,30.3596679 96.6646639,38.8463113 99.190358,46.6877823 L108.043265,71.2474721 L108.65622,85.8088643 L123.876272,90.8914729 L134.182701,85.8088643 L133.599695,70.1221713 L145.343674,70.0902878 C153.56965,69.9815087 160.178383,63.6741978 160.178383,55.9433813 L160.178383,55.8214737 L160.182376,45.4086904 L159.777067,33.7843333 Z" id="Fill-77" fill="#FBEFE1"></path>
                            <path d="M166.115057,6.39120902 C166.115057,6.39120902 142.62406,-3.58157985 119.292426,1.38798761 C115.04811,2.36956131 111.233471,4.07095574 107.882801,6.26033252 L103.07567,1.24963245 L103.07567,10.0445329 C94.1634136,18.545896 90.7744162,31.3998374 95.7207386,43.3918636 C98.1515374,49.2850452 103.07567,59.1755688 107.110191,66.4728682 L107.110191,44.7211949 L118.94344,42.6383889 L119.189546,27.3052728 C119.189546,27.3052728 141.43791,28.406505 155.296489,19.536818 L159.861549,28.1185767 C159.861549,28.1185767 156.785227,11.7664936 166.115057,6.39120902" id="Fill-79" fill="#000000"></path>
                            <path d="M112.720931,157.364341 L112.720931,157.364341 C112.720931,155.866069 111.265807,154.651163 109.471289,154.651163 L95.2248888,154.651163 L90.473379,160.077519 L109.471289,160.077519 C111.265807,160.077519 112.720931,158.862613 112.720931,157.364341" id="Fill-85" fill="#FBEFE1"></path>
                            <path d="M114.204101,164.232685 L114.204101,164.232685 C114.204101,162.791492 112.853572,161.619804 111.178305,161.605014 L90.473379,161.434109 L90.473379,166.689451 L111.120999,166.860356 C112.817278,166.873503 114.204101,165.695241 114.204101,164.232685" id="Fill-87" fill="#FBEFE1"></path>
                            <path d="M112.720931,170.929384 L112.720931,170.929384 C112.720931,169.431581 111.265807,168.217054 109.471289,168.217054 L90.473379,168.217054 L90.473379,173.643411 L109.471289,173.643411 C111.265807,173.643411 112.720931,172.428884 112.720931,170.929384" id="Fill-89" fill="#FBEFE1"></path>
                            <path d="M126.069463,181.301329 L126.069463,179.551384 C126.069463,178.534685 125.07636,177.713178 123.851874,177.713178 L112.720931,177.713178 L112.720931,183.139535 L123.851874,183.139535 C125.07636,183.139535 126.069463,182.318028 126.069463,181.301329" id="Fill-91" fill="#FF63BE"></path>
                            <path d="M93.8949358,177.713178 L87.5468149,177.713178 L81.9861824,175.539119 L81.5743581,160.524131 L81.8254705,160.283552 C85.576085,156.694319 90.8173025,155.081022 96.3598549,155.081022 L96.4060596,154.651163 L93.8949358,177.713178 Z" id="Fill-93" fill="#FBEFE1"></path>
                            <polygon id="Fill-95" fill="#FFFFFF" points="390.073749 177.713178 110.997682 177.713178 2.9663403 177.713178 2.9663403 194.386097 26.2556138 194.386097 13.6087539 333.327082 19.6200658 333.327082 52.4633933 194.386097 110.997682 194.386097 124.210002 194.386097 109.919456 350 116.83064 350 154.047674 194.386097 299.849348 194.386097 332.692676 333.327082 338.703988 333.327082 326.057128 194.386097 341.999468 194.386097 379.216501 350 386.127685 350 371.837139 194.386097 390.073749 194.386097"></polygon>
                            <path d="M202.558064,157.364341 L357.279262,157.364341 C362.625213,157.364341 367.227098,153.931868 368.284561,149.158095 L386.882161,65.161072 C388.283351,58.824907 382.96975,52.9069767 375.876863,52.9069767 L221.155664,52.9069767 C215.811735,52.9069767 211.207828,56.33945 210.150365,61.1132225 L191.554787,145.112088 C190.151576,151.446411 195.465176,157.364341 202.558064,157.364341" id="Fill-97" fill="#FFFFFF"></path>
                        </g>
                        <path d="M316.366287,114 L268.91368,114 L288.331204,160.215529 C290.405613,165.151059 286.462606,170.470588 280.730473,170.470588 L251,170.470588 L251,178 L318.558884,178 C330.915675,178 339.345762,166.448 334.709928,155.867294 L316.366287,114 Z" id="Fill-99" fill="#B3D2EC"></path>
                    </g>
                </g>
            </g>
        </g>
    </g>
</svg>