<?xml version="1.0" encoding="utf-8"?>
<!-- Generator: Adobe Illustrator 23.0.1, SVG Export Plug-In . SVG Version: 6.00 Build 0)  -->
<svg version="1.1" id="Layer_1" xmlns="http://www.w3.org/2000/svg" xmlns:xlink="http://www.w3.org/1999/xlink" x="0px" y="0px"
	 viewBox="0 0 4000 1000" style="enable-background:new 0 0 4000 1000;" xml:space="preserve">
<style type="text/css">
	.st0{fill-rule:evenodd;clip-rule:evenodd;fill:none;stroke:#010101;stroke-width:30;stroke-linecap:round;stroke-miterlimit:10;}
	.st1{fill-rule:evenodd;clip-rule:evenodd;fill:#010101;}
	.st2{fill:#010101;}
</style>
<g>
	<polyline class="st0" points="449.17,423.29 409.6,187.84 698.27,521.26 	"/>
	<polyline class="st0" points="655.75,369.09 1033.92,91.62 532.68,908.38 479.27,587.97 	"/>
	<polyline class="st0" points="553.93,438.46 255.2,639.86 425.27,653.28 	"/>
	<polyline class="st0" points="781.06,599.58 857.14,691.32 725.12,675.66 	"/>
	<circle class="st1" cx="479.27" cy="592.12" r="37.74"/>
	<circle class="st1" cx="541.68" cy="446.51" r="37.74"/>
	<circle class="st1" cx="693.35" cy="510.07" r="37.74"/>
	<g>
		<path class="st2" d="M1240.37,300.36l194.88,417.68h-44.79l-65.74-137.29h-180.34l-65.15,137.29h-46.54l197.79-417.68H1240.37z
			 M1235.13,388.78L1163,540.03h143.11L1235.13,388.78z"/>
		<path class="st2" d="M1777.9,655.79c-30.25,45.96-82.6,69.81-144.85,69.81c-101.8,0-169.86-73.3-169.86-159.39
			c0-90.75,70.97-165.21,172.77-165.21c59.34,0,113.44,24.43,141.95,72.14l-31.99,19.78c-27.35-36.07-65.15-53.52-111.69-53.52
			c-78.53,0-130.31,57.59-130.31,123.91c0,67.48,51.19,126.24,130.89,126.24c44.79,0,82.02-18.03,111.11-54.1L1777.9,655.79z"/>
		<path class="st2" d="M2062.96,409.14h41.89v159.98c0,104.13-47.13,156.48-135.54,156.48c-88.43,0-136.13-52.35-136.13-156.48
			V409.14h41.89v150.67c0,32.58,0,59.34,8.72,77.95c14.54,31.41,46.54,49.45,85.52,49.45c28.5,0,53.52-10.47,69.8-27.35
			c24.44-26.18,23.85-55.85,23.85-100.06V409.14z"/>
		<path class="st2" d="M2425.97,718.04h-39.56V559.81c0-23.85-2.33-43.63-2.91-57.59c-1.74-33.74-29.09-62.82-69.81-62.82
			c-27.34,0-54.68,13.38-72.13,36.07c-22.1,28.51-26.17,65.15-26.17,111.69v130.89h-39.56v-308.9h39.56v52.94
			c27.34-39.56,61.66-61.08,105.87-61.08c47.13,0,80.86,24.43,97.74,74.46c27.34-49.45,68.06-74.46,113.44-74.46
			c63.99,0,105.29,45.96,105.29,133.8v183.25h-39.56v-168.7c0-22.69-2.91-40.72-3.48-52.35c-1.75-27.35-27.92-57.59-69.81-57.59
			c-38.4,0-72.13,23.27-87.84,62.82c-9.89,25.02-11.05,52.36-11.05,80.86V718.04z"/>
		<path class="st2" d="M2732.55,566.79c1.74,70.97,50.03,122.75,116.34,122.75c64.58,0,95.41-36.65,118.09-73.88l33.16,17.45
			c-31.41,61.66-79.7,92.5-147.18,92.5c-102.38,0-161.14-78.53-161.14-161.14c0-84.35,62.25-163.47,158.82-163.47
			c87.84,0,158.81,63.41,159.97,165.79H2732.55z M2966.99,531.89c-16.29-63.99-62.25-92.5-115.76-92.5
			c-55.26,0-96.56,29.67-114.6,92.5H2966.99z"/>
		<path class="st2" d="M3108.38,464.4c31.99-41.88,70.39-63.41,115.76-63.41c67.48,0,114.6,46.54,114.6,143.69v173.36h-39.55V549.92
			c0-72.71-22.7-112.86-82.61-112.86c-33.16,0-60.5,14.54-81.44,41.88c-23.26,30.25-26.76,60.5-26.76,109.37v129.73h-39.56v-308.9
			h39.56V464.4z"/>
		<path class="st2" d="M3443.46,293.96h39.56v115.18h63.4v34.91h-63.4v274h-39.56v-274h-54.68v-34.91h54.68V293.96z"/>
		<path class="st2" d="M3585.4,653.47c19.78,22.1,41.3,34.32,64.58,34.32c30.25,0,57.01-22.1,57.01-51.19
			c0-18.04-10.47-34.91-25.6-43.05c-70.97-39.56-107.03-56.43-107.03-110.53c0-48.86,37.81-82.02,84.93-82.02
			c33.74,0,59.33,16.29,85.51,41.88l-25.59,26.18c-18.62-18.04-37.23-29.67-62.25-29.67c-25.59,0-46.54,18.03-46.54,41.3
			c0,15.71,9.89,33.16,23.85,41.3c70.97,41.3,110.53,57.01,110.53,112.86c0,48.29-37.23,91.33-93.08,91.33
			c-34.32,0-69.23-15.7-91.34-44.21L3585.4,653.47z"/>
	</g>
</g>
</svg>
