<?xml version="1.0" encoding="utf-8"?>
<!-- Generator: Adobe Illustrator 21.1.0, SVG Export Plug-In . SVG Version: 6.00 Build 0)  -->
<svg version="1.1" id="Layer_1" xmlns="http://www.w3.org/2000/svg" xmlns:xlink="http://www.w3.org/1999/xlink" x="0px" y="0px"
	 viewBox="0 0 702.8 111.2" style="enable-background:new 0 0 702.8 111.2;" xml:space="preserve">
<style type="text/css">
	.st0{fill:#ED5550;}
</style>
<g id="XMLID_313_">
	<g id="XMLID_361_">
		<path id="XMLID_381_" class="st0" d="M146.1,52.4c0-11.2,9.3-20.8,22.9-20.8c13.7,0,23,9.6,23,20.8V72c0,4.8-3.9,8.6-8.6,8.6h-4
			V54.2c0-7.7-4.3-12-10.4-12c-6,0-10.3,4.4-10.3,12V72c0,4.8-3.9,8.6-8.6,8.6h-4V52.4z"/>
		<path id="XMLID_380_" class="st0" d="M673.5,31.1c-6.8,0-12.6,2.5-16.6,6.4c-4-3.9-9.8-6.4-16.7-6.4c-13.6,0-22.9,9.8-22.9,21.2
			V81h4c4.8,0,8.6-3.9,8.6-8.8V54.2c0-7.8,4.3-12.2,10.3-12.2c5.9,0,10,4.1,10.4,11.3V81h0h3.9h0c4.8,0,8.6-3.9,8.6-8.8v-19
			c0.3-7.2,4.5-11.3,10.3-11.3c6.1,0,10.4,4.5,10.4,12.2V81h4c4.8,0,8.6-3.9,8.6-8.8v-20C696.5,40.9,687.2,31.1,673.5,31.1z"/>
		<path id="XMLID_377_" class="st0" d="M242.6,74.4c-4.7,4-11.3,6.3-18.2,6.3c-14.8,0-26.8-10.8-26.8-24.6s10.9-24.6,25.7-24.6
			c14.8,0,24.5,10.8,24.5,24.6v3.5h-37.9c1.7,6.2,7.7,10.6,14.4,10.6c2.1,0,4-0.3,5.8-1.1c3.5-1.5,7.5-0.6,9.9,2.3L242.6,74.4z
			 M234.9,49.6c-1.8-4.3-5.9-7.6-11.5-7.6c-5.5,0-10,3-12.3,7.6H234.9z"/>
		<path id="XMLID_376_" class="st0" d="M310.7,53.2c0-11.7,8.9-21.4,23.3-21.4v11.4c-6.2,0-10.7,3.8-10.7,11.6v17.1
			c0,4.8-3.9,9-8.7,9h-3.9V53.2z"/>
		<path id="XMLID_373_" class="st0" d="M340,12.2h4c4.7,0,8.5,3.8,8.5,8.5v15.7c2.7-2.4,7.4-5.1,13.2-5.1
			c13.4,0,23.9,11.1,23.9,24.8c0,13.8-11.1,25-25.1,24.8C350.8,80.9,340,69.4,340,55.8V12.2z M364.8,69.2c7,0,12.6-5.6,12.6-12.6
			c0-7-5.6-12.6-12.6-12.6c-6.9,0-12.6,5.6-12.6,12.6C352.2,63.6,357.9,69.2,364.8,69.2"/>
		<path id="XMLID_372_" class="st0" d="M395.7,31.4h4c4.8,0,8.6,3.9,8.6,8.6v17.9c0,7.7,4.3,12,10.3,12c6.1,0,10.4-4.4,10.4-12V31.4
			h4c4.8,0,8.6,3.9,8.6,8.6v19.7c0,11.2-9.3,20.8-23,20.8c-13.6,0-22.9-9.6-22.9-20.8V31.4z"/>
		<path id="XMLID_369_" class="st0" d="M290.8,35.7c-3.3-2.7-7.8-4.4-12.5-4.4c-13.9,0-24.3,11.1-24.3,24.9
			c0,13.8,10.4,24.7,24.3,24.7c5.2,0,9.9-1.9,13.4-5.1v5.1h12.5V37c-1.7,1.1-3.7,1.8-5.9,1.8C295.4,38.8,292.7,37.6,290.8,35.7
			 M279.2,69.2c-7.1,0-12.7-5.6-12.7-12.6c0-7,5.7-12.6,12.7-12.6c7,0,12.8,5.6,12.8,12.6C292,63.6,286.2,69.2,279.2,69.2"/>
		<path id="XMLID_368_" class="st0" d="M480.6,31.4V58c0,7.6-4.3,12-10.4,12c-6,0-10.3-4.4-10.3-12V40.2c0-4.7-3.8-8.9-8.6-8.9h-4
			v28.5c0,11.1,9.3,20.8,22.8,20.8c3.8,0,8.6-2.2,10.4-4.6v2c0,6-3.8,11.1-9.2,13c-2.9,1.1-4.8,3.9-4.8,7l0,4.8l0,0
			c15.9,0.1,26.6-10.8,26.6-25.1V40.2c0-4.7-3.8-8.9-8.6-8.9H480.6z"/>
		<path id="XMLID_367_" class="st0" d="M537.7,81c-11.2,0-20.8-9.3-20.8-22.9c0-18.2,9.6-26.8,20.8-26.8l10.2,0
			c4.8,0,8.6,3.9,8.6,8.6v4l-15.2,0c-8.4,0-13.8,2.6-13.8,12.8c0,7.3,5.7,11.7,14.4,11.7l6,0c4.8,0,8.6,3.9,8.6,8.6v4L537.7,81z"/>
		<g id="XMLID_365_">
			<path id="XMLID_366_" class="st0" d="M507.2,90c8.7,0,8.7-13.5,0-13.5C498.5,76.4,498.5,90,507.2,90L507.2,90z"/>
		</g>
		<path id="XMLID_362_" class="st0" d="M587,31.2c-13.7,0-24.8,11.2-24.8,24.9c0,13.7,11.1,24.9,24.8,24.9
			c13.6,0,24.8-11.2,24.8-24.9C611.7,42.4,600.6,31.2,587,31.2z M587,69.4c-7,0-12.6-5.7-12.6-12.7S580,44.1,587,44.1
			s12.6,5.7,12.6,12.7S593.9,69.4,587,69.4z"/>
	</g>
	<g id="XMLID_348_">
		<path id="XMLID_358_" class="st0" d="M116.3,9.8C107.9-0.9,92.2-2,82.5,7.4c-1.1,1.1-2,2.2-2.6,3.1c-2.9,4.4-3.7,8.9-4,13.5
			c-0.3,4.9,0.1,9.8,0.1,14.7c0.1,8-1,15.8-3.8,23.3l0,0h0l0,0l-1.3,3.9l3.1-2.8l0,0v0l0,0c2.1-2,4.3-3.8,6.7-5.4
			c5.3-3.7,11-6.7,17.1-9c3.8-1.5,7.7-2.9,11.3-4.9C120.7,37.5,125.4,21.6,116.3,9.8 M105.2,28.6c-2.6,4-8.1,5.3-12,2.7
			c-3.9-2.6-5-8.1-2.3-12.2c2.6-4.1,7.9-5.1,12.1-2.3C106.7,19.3,107.8,24.7,105.2,28.6"/>
		<path id="XMLID_355_" class="st0" d="M68.2,62.8L68.2,62.8L68.2,62.8c-5.5-5.8-9.6-12.5-12.7-19.8c-1.9-4.5-3.5-9.2-5.7-13.5
			c-2.1-4.1-4.7-7.9-9.1-10.8c-0.8-0.6-2.2-1.3-3.6-1.8C24.4,12,10.4,19.3,7,32.5c-3.7,14.5,6.9,27.1,20.1,28.4
			c4.1,0.4,8.2,0.2,12.3,0c6.5-0.3,12.9,0.1,19.3,1.4c2.8,0.6,5.6,1.3,8.3,2.3l0,0l0,0l3.9,1.3L68.2,62.8z M36.7,43
			c-2.5,3.9-8,4.9-12.1,2.3c-3.9-2.6-5.1-7.9-2.6-11.7c2.7-4.2,7.9-5.4,12-2.7C38,33.6,39.2,39.1,36.7,43"/>
		<path id="XMLID_352_" class="st0" d="M68.8,67.8c-1.4,1.4-3,2.6-4.6,3.7c-3.6,2.5-7.5,4.6-11.7,6.1c-2.6,1-5.2,2-7.7,3.3
			C37,85.3,33.8,96.1,40,104.2c5.7,7.3,16.4,8.1,23,1.6c0.7-0.7,1.4-1.5,1.8-2.1c2-3,2.5-6.1,2.7-9.2c0.2-3.3-0.1-6.7-0.1-10
			c0-5.4,0.7-10.7,2.6-15.8l0.9-2.7L68.8,67.8z M57.3,97.9c-1.8,2.8-5.4,3.5-8.2,1.6c-2.6-1.7-3.3-5.4-1.6-8
			c1.8-2.8,5.5-3.6,8.2-1.8C58.4,91.3,59.1,95.1,57.3,97.9"/>
		<path id="XMLID_349_" class="st0" d="M100.8,69.4c-2.8-0.3-5.6-0.1-8.4,0c-4.4,0.2-8.8-0.1-13.1-1c-1.9-0.4-3.8-0.9-5.7-1.6
			l-2.7-0.9l1.9,2.1c3.8,3.9,6.6,8.5,8.7,13.5c1.3,3.1,2.4,6.2,3.9,9.2c1.5,2.8,3.2,5.4,6.2,7.4c0.6,0.4,1.5,0.9,2.4,1.2
			c8.6,3.3,18.1-1.7,20.4-10.6C117,78.9,109.8,70.2,100.8,69.4 M104.3,88c-1.9,2.9-5.4,3.7-8.2,1.8c-2.7-1.8-3.6-5.6-1.8-8.3
			c1.7-2.7,5.5-3.4,8.2-1.6C105.1,81.8,105.9,85.4,104.3,88"/>
	</g>
</g>
</svg>
