<?xml version="1.0" encoding="UTF-8" standalone="no"?>
<svg width="84.6667mm" height="31.75mm"
 xmlns="http://www.w3.org/2000/svg" xmlns:xlink="http://www.w3.org/1999/xlink"  version="1.2" baseProfile="tiny">
<desc>Created by EvoPdf</desc>
<defs>
</defs>
<g fill="none" stroke="black" stroke-width="1" fill-rule="evenodd" stroke-linecap="square" stroke-linejoin="bevel" >

<g fill="#000000" fill-opacity="1" stroke="#000000" stroke-opacity="1" stroke-width="1" stroke-linecap="butt" stroke-linejoin="miter" stroke-miterlimit="2" transform="matrix(1,0,0,1,0,0)"
>
</g>

<g fill="#000000" fill-opacity="1" stroke="#000000" stroke-opacity="1" stroke-width="1" stroke-linecap="butt" stroke-linejoin="miter" stroke-miterlimit="2" transform="matrix(1,0,0,1,0,0)"
>
</g>

<g fill="#000000" fill-opacity="1" stroke="#000000" stroke-opacity="1" stroke-width="1" stroke-linecap="butt" stroke-linejoin="miter" stroke-miterlimit="2" transform="matrix(1,0,0,1,0,0)"
>
</g>

<g fill="#000000" fill-opacity="1" stroke="#000000" stroke-opacity="1" stroke-width="1" stroke-linecap="butt" stroke-linejoin="miter" stroke-miterlimit="2" transform="matrix(1,0,0,1,0,0)"
>
</g>

<g fill="#000000" fill-opacity="1" stroke="#000000" stroke-opacity="1" stroke-width="1" stroke-linecap="butt" stroke-linejoin="miter" stroke-miterlimit="2" transform="matrix(5.73585,0,0,5.73585,8,10.6415)"
>
</g>

<g fill="#ff0000" fill-opacity="1" stroke="none" transform="matrix(5.73585,0,0,5.73585,8,10.6415)"
>
<path vector-effect="none" fill-rule="nonzero" d="M44.584,19.15 C49.618,19.15 53.714,15.027 53.714,9.96 C53.714,4.89 49.618,0.77 44.584,0.77 C39.549,0.77 35.454,4.89 35.454,9.96 C35.454,15.027 39.549,19.15 44.584,19.15 M44.584,6.683 C46.378,6.683 47.839,8.153 47.839,9.959 C47.839,11.765 46.377,13.233 44.583,13.233 C42.788,13.233 41.329,11.765 41.329,9.958 C41.329,8.15 42.789,6.681 44.583,6.681 L44.584,6.683 M10.138,19.15 C15.172,19.15 19.268,15.027 19.268,9.96 C19.268,4.89 15.172,0.77 10.138,0.77 C5.105,0.77 1.008,4.89 1.008,9.96 C1.008,15.027 5.105,19.15 10.138,19.15 M10.138,6.683 C11.933,6.683 13.393,8.153 13.393,9.959 C13.393,11.765 11.933,13.233 10.138,13.233 C8.344,13.233 6.885,11.765 6.885,9.958 C6.885,8.15 8.345,6.681 10.138,6.681 L10.138,6.683 M27.356,6.476 L24.553,0.89 L17.99,0.89 L24.12,13.11 L24.12,18.863 L30.593,18.863 L30.593,13.11 L36.723,0.89 L30.157,0.89 L27.357,6.476 L27.356,6.476"/>
</g>

<g fill="#000000" fill-opacity="1" stroke="#000000" stroke-opacity="1" stroke-width="1" stroke-linecap="butt" stroke-linejoin="miter" stroke-miterlimit="2" transform="matrix(5.73585,0,0,5.73585,8,10.6415)"
>
</g>

<g fill="#000000" fill-opacity="1" stroke="#000000" stroke-opacity="1" stroke-width="1" stroke-linecap="butt" stroke-linejoin="miter" stroke-miterlimit="2" transform="matrix(5.73585,0,0,5.73585,8,10.6415)"
>
</g>

<g fill="#000000" fill-opacity="1" stroke="#000000" stroke-opacity="1" stroke-width="1" stroke-linecap="butt" stroke-linejoin="miter" stroke-miterlimit="2" transform="matrix(1,0,0,1,0,0)"
>
</g>

<g fill="#000000" fill-opacity="1" stroke="#000000" stroke-opacity="1" stroke-width="1" stroke-linecap="butt" stroke-linejoin="miter" stroke-miterlimit="2" transform="matrix(1,0,0,1,0,0)"
>
</g>

<g fill="#000000" fill-opacity="1" stroke="#000000" stroke-opacity="1" stroke-width="1" stroke-linecap="butt" stroke-linejoin="miter" stroke-miterlimit="2" transform="matrix(1,0,0,1,0,0)"
>
</g>

<g fill="#000000" fill-opacity="1" stroke="#000000" stroke-opacity="1" stroke-width="1" stroke-linecap="butt" stroke-linejoin="miter" stroke-miterlimit="2" transform="matrix(1,0,0,1,0,0)"
>
</g>

<g fill="#000000" fill-opacity="1" stroke="#000000" stroke-opacity="1" stroke-width="1" stroke-linecap="butt" stroke-linejoin="miter" stroke-miterlimit="2" transform="matrix(1,0,0,1,0,0)"
>
</g>

<g fill="#000000" fill-opacity="1" stroke="#000000" stroke-opacity="1" stroke-width="1" stroke-linecap="butt" stroke-linejoin="miter" stroke-miterlimit="2" transform="matrix(1,0,0,1,0,0)"
>
</g>
</g>
</svg>
